<svg xmlns="http://www.w3.org/2000/svg" viewBox="0 0 225 225">
  <path d="M98.27 42q3.23-.65 1.23 1.97-10.51 13.82-27.76 18.78a1.08 1.02 83.1 0 0-.74 1l-.29 11.87a1.11 1.1-89 0 0 1.09 1.14l22.41.22a1.32 1.3 87.3 0 1 1.28 1.19l2.76 27.34a.47.47 87.3 0 0 .47.43q25.84-.33 51.82-.65.09 0 6.39-.24 3.69-.14 7.19.17a1 1-86.9 0 1 .91 1.02l-.71 30.94a.5.5-89.4 0 0 .5.51l56.27.31q3.99.02.73 2.31l-45.94 32.15a4.41 4.33 28.7 0 1-2.77.78q-6.73-.37-13.61-.24H46q-15.98 0-24.94-.53a1.02 1.01-15.3 0 1-.78-.44q-10.9-16-17.87-33.62a.67.65 78.4 0 1 .58-.91l22.94-.48a2.85 2.63 12.3 0 0 2.41-1.42q7.2-13.69 14.26-26.72 1.14-2.12 1.32-4.56 1.01-13.57 2.82-27.02a.58.57 3.5 0 1 .56-.49l20.64-.12a.52.51-89.4 0 0 .51-.51l1.07-31.12a1.34 1.33 3.1 0 1 1.44-1.29Q84.21 44.82 98.27 42Zm-3.33 4.19q1.55-1.65-.68-1.31-11.54 1.77-22.45.97a.5.47 2.8 0 0-.54.46l-.11 14.01a.39.37-8.2 0 0 .5.35q13.62-4.2 23.28-14.48ZM50.75 79.04q-2.54-.75-2.54 1.19v1.04q-.92 12.37-1.97 24.88a.57.57 2.2 0 0 .58.62q23.44-.54 46.23-1.01.05 0 1.4.09 1.58.11 1.2-1.38-.1-.41-.07-.96.04-.53-.22-.91a1.14.76-11.3 0 0-.85-.35l-29.26-.21q-1.57.26-2.64-.68a1.27 1.04-74.5 0 1-.38-.86l-.42-16.06a.43.43.6 0 1 .42-.44l31.21-.5a.58.58 86.8 0 0 .57-.64l-.3-3.55a.53.53 87.7 0 0-.53-.49l-42.43.22Zm25.75 7H64.56a.57.51-1 0 0-.57.53l.05 2.18.58 10.31a.56.55-2.6 0 0 .58.52l3.55-.12h19l6.59.03a.67.65-1.6 0 0 .68-.7l-.9-12.86a.53.51-2.8 0 0-.55-.48l-17.07.59Zm-29 23-2.43-.02a.89.78-74.5 0 0-.73.48l-14.04 27a.3.3 13.7 0 0 .27.44l129.93.77.69.05a.58.49-87.5 0 0 .52-.57l.96-28.63a.47.47-89.4 0 0-.48-.49q-92.4.87-93.94.93-10.38.42-20.75.04ZM171 170.46q3.05.81 5.69-1.02 20.67-14.37 41.78-28.7 1.01-.68-.21-.68-48.67.06-98.01-.58-28-.36-56-.42-27.63-.05-55.25-.77l-4.7-.08q-1.04-.01-.49.97 4.99 8.98 9.53 18.18 3.35 6.79 7.45 13.16a.94.91-16 0 0 .78.42q73.97.28 147.93-.14.79-.01 1.5-.34Z"
        style="opacity:1"/>
  <path fill="#DC6A51"
        d="M94.26 44.88q2.23-.34.68 1.31-9.66 10.28-23.28 14.48a.39.37-8.2 0 1-.5-.35l.11-14.01a.5.47 2.8 0 1 .54-.46q10.91.8 22.45-.97Z"
        style="opacity:1"/>
  <path fill="#FFF"
        d="m93.71 79.31.3 3.55a.58.58 86.8 0 1-.57.64l-31.21.5a.43.43-1.8 0 0-.42.44l.42 16.06a1.27 1.04-74.5 0 0 .38.86q1.07.94 2.64.68.03 1.04-1.25.96-6.62-.42-13.03-.5a.51.51-88.4 0 1-.51-.54q.64-11.31 1.48-21.9.07-.92-1.19-1.02l42.43-.22a.53.53 87.7 0 1 .53.49Z"
        style="opacity:1"/>
  <path fill="#D9D7D9"
        d="M50.75 79.04q1.26.1 1.19 1.02-.84 10.59-1.48 21.9a.51.51-88.4 0 0 .51.54q6.41.08 13.03.5 1.28.08 1.25-.96l29.26.21a1.14.76-11.3 0 1 .85.35q.26.38.22.91-.03.55.07.96.38 1.49-1.2 1.38-1.35-.09-1.4-.09-22.79.47-46.23 1.01a.57.57 2.2 0 1-.58-.62q1.05-12.51 1.97-24.88v-1.04q0-1.94 2.54-1.19Z"
        style="opacity:1"/>
  <path fill="#D3F1FA"
        d="m94.12 85.93.9 12.86a.67.65-1.6 0 1-.68.7l-6.59-.03q-.21-4.74-2.38-8.94-.24-.48-.43-1.23-.39-1.57-1.35-.67a.88.77 60.5 0 0-.18.86q1.65 4.86 1.84 9.98h-5.5q-2.55-6.5-3.25-13.42l17.07-.59a.53.51-2.8 0 1 .55.48Zm-29.56.11h6.19q0 5.74 1.61 11.24a1.81.87-61.8 0 1-.04.93q-.17.66.18 1.25h-3.75q-1.32-3.88-1.76-7.96-.3-2.88-2.95-2.75l-.05-2.18a.57.51-1 0 1 .57-.53Z"
        style="opacity:1"/>
  <path fill="#FFF"
        d="M70.75 86.04h5.75q.7 6.92 3.25 13.42H72.5q-.35-.59-.18-1.25a1.81.87-61.8 0 0 .04-.93q-1.61-5.5-1.61-11.24Z"
        style="opacity:1"/>
  <path fill="#F6F6F6"
        d="M85.37 90.52q2.17 4.2 2.38 8.94h-2.5q-.19-5.12-1.84-9.98a.88.77 60.5 0 1 .18-.86q.96-.9 1.35.67.19.75.43 1.23Z"
        style="opacity:1"/>
  <path fill="#B7E1F0"
        d="M66.99 91.5q.44 4.08 1.76 7.96l-3.55.12a.56.55-2.6 0 1-.58-.52l-.58-10.31q2.65-.13 2.95 2.75Z"
        style="opacity:1"/>
  <path fill="#FFF"
        d="m162.67 108.56-.96 28.63a.58.49-87.5 0 1-.52.57l-.69-.05q-.07-1.62-1.38-1.61-1.62.02-1.74 0-8.51-1.43-17.13-.85-6.64-.72-13.31-.44-27.16-1.56-34.44-1.31-11.76.4-23.5-.5-13.34.05-26.79-.06a.81.81-80.7 0 1-.76-1.06q3.5-10.96 6.05-22.84 10.37.38 20.75-.04 1.54-.06 93.94-.93a.47.47-89.4 0 1 .48.49Zm-46.99 4.2q-3.49-.71-6.68-.51-20.23-.14-40.44.55a.61.6-86 0 0-.58.51q-1.41 8.31-1.76 17.54a.84.84-87.6 0 0 .81.88q24.97.63 48.68.03a.82.82 88.6 0 0 .8-.84l-.27-17.48a.71.71 5.7 0 0-.56-.68Zm41.04 1.52a1.19 1.19 0 0 0-1.19-1.19h-35.32a1.19 1.19 0 0 0-1.19 1.19v16.54a1.19 1.19 0 0 0 1.19 1.19h35.32a1.19 1.19 0 0 0 1.19-1.19v-16.54Z"
        style="opacity:1"/>
  <path fill="#D9D7D9"
        d="m45.07 109.02 2.43.02q-2.55 11.88-6.05 22.84a.81.81-80.7 0 0 .76 1.06q13.45.11 26.79.06 11.74.9 23.5.5 7.28-.25 34.44 1.31 6.67-.28 13.31.44 8.62-.58 17.13.85.12.02 1.74 0 1.31-.01 1.38 1.61l-129.93-.77a.3.3 13.7 0 1-.27-.44l14.04-27a.89.78-74.5 0 1 .73-.48Z"
        style="opacity:1"/>
  <path d="M109 112.25q3.19-.2 6.68.51a.71.71 5.7 0 1 .56.68l.27 17.48a.82.82-89.9 0 1-.8.84q-23.71.6-48.68-.03a.84.84-87.6 0 1-.81-.88q.35-9.23 1.76-17.54a.61.6-86 0 1 .58-.51q20.21-.69 40.44-.55Zm-26 2.46q-.95-.21-1.79.04l-10.91.27a.72.69-81.8 0 0-.65.51q-.32 1.06-.19 2.22l-.54 11.56a.51.49.5 0 0 .52.51l9.81-.28 1.25-.08H86l27.36.21a1.11 1.05 0 0 0 1.12-1.06l-.14-13.93a.52.5-1.1 0 0-.53-.49l-30.81.52Zm73.72 16.11a1.19 1.19 0 0 1-1.19 1.19h-35.32a1.19 1.19 0 0 1-1.19-1.19v-16.54a1.19 1.19 0 0 1 1.19-1.19h35.32a1.19 1.19 0 0 1 1.19 1.19v16.54Zm-35.68-13.07.01 11.44a.74.69-81.2 0 0 .47.69q.95.32 1.98.08l13.5-.46 3.5-.04h2.75l10.45-.5a.54.54-45 0 0 .52-.52l.54-12.15a.58.54 1.5 0 0-.57-.56l-10.94-.19-11.75-.25-10.23-.3a.64.54 85.9 0 0-.53.73l.3 2.03Z"
        style="opacity:1"/>
  <path fill="#D3F1FA"
        d="m114.34 114.68.14 13.93a1.11 1.05 0 0 1-1.12 1.06L86 129.46q.67-.5-.05-1.47a1.4 1.31-66.5 0 1-.27-.76l-.64-11.99a.57.51-.4 0 0-.54-.48l-1.5-.05 30.81-.52a.52.5-1.1 0 1 .53.49Z"
        style="opacity:1"/>
  <path fill="#FFF"
        d="m83 114.71 1.5.05a.57.51-.4 0 1 .54.48l.64 11.99a1.4 1.31-66.5 0 0 .27.76q.72.97.05 1.47h-5.5l.71-14.71q.84-.25 1.79-.04Z"
        style="opacity:1"/>
  <path fill="#C9F1FC"
        d="m81.21 114.75-.71 14.71-1.25.08-4.19-.09a.72.65-6.3 0 1-.67-.48l-2.43-9.17a.91.79 88.4 0 0-.59-.64q-1.64-.43-1.91-1.41-.13-1.16.19-2.22a.72.69-81.8 0 1 .65-.51l10.91-.27Z"
        style="opacity:1"/>
  <path fill="#D3F1FA"
        d="m121.27 114.99 10.23.3.65 13.53a.58.53 88.8 0 0 .52.55l4.33.13-13.5.46q1.35-4.55 0-9.96-.53-2.12-2.46-2.25l-.3-2.03a.64.54 85.9 0 1 .53-.73Z"
        style="opacity:1"/>
  <path fill="#FFF"
        d="m131.5 115.29 11.75.25q-1.58.3-1.04 1.29.26.49.29.92l.75 11.71h-2.75l-.5-11.22a1.21 1.21-3.3 0 0-1.29-1.15q-1.45.09-3.67-.77-.67-.26-.53.46L137 129.5l-4.33-.13a.58.53 88.8 0 1-.52-.55l-.65-13.53Z"
        style="opacity:1"/>
  <path fill="#D3F1FA"
        d="m143.25 115.54 10.94.19a.58.54 1.5 0 1 .57.56l-.54 12.15a.54.54-45 0 1-.52.52l-10.45.5-.75-11.71q-.03-.43-.29-.92-.54-.99 1.04-1.29Zm-8.21.78q2.22.86 3.67.77a1.21 1.21-3.3 0 1 1.29 1.15l.5 11.22-3.5.04-2.49-12.72q-.14-.72.53-.46Z"
        style="opacity:1"/>
  <path fill="#B7E1F0"
        d="M69.46 117.75q.27.98 1.91 1.41a.91.79 88.4 0 1 .59.64l2.43 9.17a.72.65-6.3 0 0 .67.48l4.19.09-9.81.28a.51.49.5 0 1-.52-.51l.54-11.56Zm51.58 0q1.93.13 2.46 2.25 1.35 5.41 0 9.96-1.03.24-1.98-.08a.74.69-81.2 0 1-.47-.69l-.01-11.44Z"
        style="opacity:1"/>
  <path fill="#525252"
        d="m9 138.29 15.03 23.91a3.21 3.02-10.8 0 0 2.22 1.41q4.22.61 9.25.64 3.71.02 19 .75 14.14-.12 28.25.75 32.14.78 64.25 2.18 11.53.5 23 1.8.71.08 1 .73-.71.33-1.5.34-73.96.42-147.93.14a.94.91-16 0 1-.78-.42q-4.1-6.37-7.45-13.16-4.54-9.2-9.53-18.18-.55-.98.49-.97l4.7.08Z"
        style="opacity:1"/>
  <path fill="#929292"
        d="M9 138.29q27.62.72 55.25.77 28 .06 56 .42 49.34.64 98.01.58 1.22 0 .21.68-21.11 14.33-41.78 28.7-2.64 1.83-5.69 1.02-.29-.65-1-.73-11.47-1.3-23-1.8-32.11-1.4-64.25-2.18-14.11-.87-28.25-.75-15.29-.73-19-.75-5.03-.03-9.25-.64a3.21 3.02-10.8 0 1-2.22-1.41L9 138.29Zm79.28 15.88a8.74 8.74 0 0 0-8.74-8.74 8.74 8.74 0 0 0-8.74 8.74 8.74 8.74 0 0 0 8.74 8.74 8.74 8.74 0 0 0 8.74-8.74Zm-48.15.19a8.77 8.77 0 0 0-8.77-8.77 8.77 8.77 0 0 0-8.77 8.77 8.77 8.77 0 0 0 8.77 8.77 8.77 8.77 0 0 0 8.77-8.77Zm24.3.24a8.76 8.76 0 0 0-8.76-8.76 8.76 8.76 0 0 0-8.76 8.76 8.76 8.76 0 0 0 8.76 8.76 8.76 8.76 0 0 0 8.76-8.76Zm48.2-.16a8.76 8.76 0 0 0-8.76-8.76 8.76 8.76 0 0 0-8.76 8.76 8.76 8.76 0 0 0 8.76 8.76 8.76 8.76 0 0 0 8.76-8.76Zm24.76.41a8.78 8.78 0 0 0-8.78-8.78 8.78 8.78 0 0 0-8.78 8.78 8.78 8.78 0 0 0 8.78 8.78 8.78 8.78 0 0 0 8.78-8.78Zm48.18-.21a8.77 8.77 0 0 0-8.77-8.77 8.77 8.77 0 0 0-8.77 8.77 8.77 8.77 0 0 0 8.77 8.77 8.77 8.77 0 0 0 8.77-8.77Zm-23.89.49a8.78 8.78 0 0 0-8.78-8.78 8.78 8.78 0 0 0-8.78 8.78 8.78 8.78 0 0 0 8.78 8.78 8.78 8.78 0 0 0 8.78-8.78Z"
        style="opacity:1"/>
  <path d="M88.28 154.17a8.74 8.74 0 0 1-8.74 8.74 8.74 8.74 0 0 1-8.74-8.74 8.74 8.74 0 0 1 8.74-8.74 8.74 8.74 0 0 1 8.74 8.74Zm-1.98-.3a6.72 6.72 0 0 0-6.72-6.72 6.72 6.72 0 0 0-6.72 6.72 6.72 6.72 0 0 0 6.72 6.72 6.72 6.72 0 0 0 6.72-6.72Zm-46.17.49a8.77 8.77 0 0 1-8.77 8.77 8.77 8.77 0 0 1-8.77-8.77 8.77 8.77 0 0 1 8.77-8.77 8.77 8.77 0 0 1 8.77 8.77ZM27.21 149q-4.99 4.52-.96 9.5 3.56 4.4 9 1.04 3.96-3.54 2.42-7.64-1.16-3.07-3.95-4.26-3.2-1.37-6.51 1.36Zm37.22 5.6a8.76 8.76 0 0 1-8.76 8.76 8.76 8.76 0 0 1-8.76-8.76 8.76 8.76 0 0 1 8.76-8.76 8.76 8.76 0 0 1 8.76 8.76Zm-15.22-1.35q-.9 4.51 2.73 6.81 3.1 1.97 6.56.23 6.38-3.61 2.75-9.79-1.28-2.18-3.78-2.78-2.24-.54-4.37.38-3.14 1.34-3.89 5.15Zm63.42 1.19a8.76 8.76 0 0 1-8.76 8.76 8.76 8.76 0 0 1-8.76-8.76 8.76 8.76 0 0 1 8.76-8.76 8.76 8.76 0 0 1 8.76 8.76ZM98.71 150q-2.1 2.32-1.46 5.25 1.48 6.74 8.54 5.25 5.08-1.7 4.71-7-.23-3.27-3.18-4.98-5-2.9-8.61 1.48Zm38.68 4.85a8.78 8.78 0 0 1-8.78 8.78 8.78 8.78 0 0 1-8.78-8.78 8.78 8.78 0 0 1 8.78-8.78 8.78 8.78 0 0 1 8.78 8.78Zm-15.35-.85q-.06 7.55 7.46 7.21 5.61-1.42 5.71-6.04.08-3.66-2.62-6.04-3.23-2.83-7.78-.07-2.43 1.48-2.77 4.94Zm63.53.64a8.77 8.77 0 0 1-8.77 8.77 8.77 8.77 0 0 1-8.77-8.77 8.77 8.77 0 0 1 8.77-8.77 8.77 8.77 0 0 1 8.77 8.77Zm-2.02-.27a6.73 6.73 0 0 0-6.73-6.73 6.73 6.73 0 0 0-6.73 6.73 6.73 6.73 0 0 0 6.73 6.73 6.73 6.73 0 0 0 6.73-6.73Zm-21.87.76a8.78 8.78 0 0 1-8.78 8.78 8.78 8.78 0 0 1-8.78-8.78 8.78 8.78 0 0 1 8.78-8.78 8.78 8.78 0 0 1 8.78 8.78Zm-11.93-6.09q-5.14 3.11-2.94 8.65 1.46 3.65 5.65 3.81 3.61.02 5.61-2.31 1.86-2.16 1.5-5.25-.55-4.66-6.01-5.76-2.08-.42-3.81.86Z"
        style="opacity:1"/>
  <circle cx="79.58" cy="153.87" r="6.72" fill="#C9F1FC" style="opacity:1"/>
  <path fill="#C9F1FC"
        d="M37.67 151.9q1.54 4.1-2.42 7.64-1.06-.59-1.78-1.56a1.12 1.04 73 0 0-.78-.45q-2.83-.24-4.84-2.17a1.41.83-79.7 0 1-.32-.86l-.32-5.5q3.31-2.73 6.51-1.36 2.79 1.19 3.95 4.26Zm69.65-3.38q2.95 1.71 3.18 4.98.37 5.3-4.71 7L98.71 150q3.61-4.38 8.61-1.48Zm-49.85-.8q2.5.6 3.78 2.78 3.63 6.18-2.75 9.79-4-1.84-7.47-5.7a1.22 1.17-15.6 0 0-.67-.36q-.83-.15-1.15-.98.75-3.81 3.89-5.15 2.13-.92 4.37-.38Z"
        style="opacity:1"/>
  <circle cx="176.82" cy="154.37" r="6.73" fill="#C9F1FC" style="opacity:1"/>
  <path fill="#C9F1FC"
        d="M135.21 155.17q-.1 4.62-5.71 6.04-2.36-1.8-3.81-5.15-.97-2.22-3.65-2.06.34-3.46 2.77-4.94 4.55-2.76 7.78.07 2.7 2.38 2.62 6.04Zm18.35-6.99q5.46 1.1 6.01 5.76.36 3.09-1.5 5.25-2 2.33-5.61 2.31-.32-.82-.67-1.62-.27-.64-1-1.43-1.99-2.12-1.08-5.21.62-2.09.04-4.2 1.73-1.28 3.81-.86Z"
        style="opacity:1"/>
  <path fill="#B7E1F0"
        d="m27.21 149 .32 5.5a1.41.83-79.7 0 0 .32.86q2.01 1.93 4.84 2.17a1.12 1.04 73 0 1 .78.45q.72.97 1.78 1.56-5.44 3.36-9-1.04-4.03-4.98.96-9.5Zm122.54.04q.58 2.11-.04 4.2-.91 3.09 1.08 5.21.73.79 1 1.43.35.8.67 1.62-4.19-.16-5.65-3.81-2.2-5.54 2.94-8.65Zm-51.04.96 7.08 10.5q-7.06 1.49-8.54-5.25-.64-2.93 1.46-5.25Zm-49.5 3.25q.32.83 1.15.98a1.22 1.17-15.6 0 1 .67.36q3.47 3.86 7.47 5.7-3.46 1.74-6.56-.23-3.63-2.3-2.73-6.81Zm72.83.75q2.68-.16 3.65 2.06 1.45 3.35 3.81 5.15-7.52.34-7.46-7.21Z"
        style="opacity:1"/>
</svg>