<?xml version="1.0" encoding="UTF-8" standalone="no"?>
<svg
        version="1.1"
        viewBox="0 0 225 225"
        xmlns="http://www.w3.org/2000/svg"
>
  <defs
     id="defs208" />
  <path
     fill="rgb(0,0,0)"
     fill-opacity="1.000"
     d="M 98.27 42.00 Q 101.50 41.35 99.50 43.97 Q 88.99 57.79 71.74 62.75 A 1.08 1.02 83.1 0 0 71.00 63.75 L 70.71 75.62 A 1.11 1.10 -89.0 0 0 71.80 76.76 L 94.21 76.98 A 1.32 1.30 87.3 0 1 95.49 78.17 L 98.25 105.51 A 0.47 0.47 87.3 0 0 98.72 105.94 Q 124.56 105.61 150.54 105.29 Q 150.63 105.29 156.93 105.05 Q 160.62 104.91 164.12 105.22 A 1.00 1.00 -86.9 0 1 165.03 106.24 L 164.32 137.18 A 0.50 0.50 -89.4 0 0 164.82 137.69 L 221.09 138.00 Q 225.08 138.02 221.82 140.31 L 175.88 172.46 A 4.41 4.33 28.7 0 1 173.11 173.24 Q 166.38 172.87 159.50 173.00 Q 159.50 173.00 46.00 173.00 Q 30.02 173.00 21.06 172.47 A 1.02 1.01 -15.3 0 1 20.28 172.03 Q 9.38 156.03 2.41 138.41 A 0.67 0.65 78.4 0 1 2.99 137.50 L 25.93 137.02 A 2.85 2.63 12.3 0 0 28.34 135.60 Q 35.54 121.91 42.60 108.88 Q 43.74 106.76 43.92 104.32 Q 44.93 90.75 46.74 77.30 A 0.58 0.57 3.5 0 1 47.30 76.81 L 67.94 76.69 A 0.52 0.51 -89.4 0 0 68.45 76.18 L 69.52 45.06 A 1.34 1.33 3.1 0 1 70.96 43.77 Q 84.21 44.82 98.27 42.00 Z M 94.94 46.19 Q 96.49 44.54 94.26 44.88 Q 82.72 46.65 71.81 45.85 A 0.50 0.47 2.8 0 0 71.27 46.31 L 71.16 60.32 A 0.39 0.37 -8.2 0 0 71.66 60.67 Q 85.28 56.47 94.94 46.19 Z M 50.75 79.04 Q 48.21 78.29 48.21 80.23 Q 48.21 81.27 48.21 81.27 Q 47.29 93.64 46.24 106.15 A 0.57 0.57 2.2 0 0 46.82 106.77 Q 70.26 106.23 93.05 105.76 Q 93.10 105.76 94.45 105.85 Q 96.03 105.96 95.65 104.47 Q 95.55 104.06 95.58 103.51 Q 95.62 102.98 95.36 102.60 A 1.14 0.76 -11.3 0 0 94.51 102.25 L 65.25 102.04 Q 63.68 102.30 62.61 101.36 A 1.27 1.04 -74.5 0 1 62.23 100.50 L 61.81 84.44 A 0.43 0.43 0.6 0 1 62.23 84.00 L 93.44 83.50 A 0.58 0.58 86.8 0 0 94.01 82.86 L 93.71 79.31 A 0.53 0.53 87.7 0 0 93.18 78.82 L 50.75 79.04 Z M 76.50 86.04 L 70.75 86.04 L 64.56 86.04 A 0.57 0.51 -1.0 0 0 63.99 86.57 L 64.04 88.75 L 64.62 99.06 A 0.56 0.55 -2.6 0 0 65.20 99.58 L 68.75 99.46 L 72.50 99.46 L 79.75 99.46 L 85.25 99.46 L 87.75 99.46 L 94.34 99.49 A 0.67 0.65 -1.6 0 0 95.02 98.79 L 94.12 85.93 A 0.53 0.51 -2.8 0 0 93.57 85.45 L 76.50 86.04 Z M 47.50 109.04 L 45.07 109.02 A 0.89 0.78 -74.5 0 0 44.34 109.50 L 30.30 136.50 A 0.30 0.30 13.7 0 0 30.57 136.94 L 160.50 137.71 L 161.19 137.76 A 0.58 0.49 -87.5 0 0 161.71 137.19 L 162.67 108.56 A 0.47 0.47 -89.4 0 0 162.19 108.07 Q 69.79 108.94 68.25 109.00 Q 57.87 109.42 47.50 109.04 Z M 171.00 170.46 Q 174.05 171.27 176.69 169.44 Q 197.36 155.07 218.47 140.74 Q 219.48 140.06 218.26 140.06 Q 169.59 140.12 120.25 139.48 Q 92.25 139.12 64.25 139.06 Q 36.62 139.01 9.00 138.29 L 4.30 138.21 Q 3.26 138.20 3.81 139.18 Q 8.80 148.16 13.34 157.36 Q 16.69 164.15 20.79 170.52 A 0.94 0.91 -16.0 0 0 21.57 170.94 Q 95.54 171.22 169.50 170.80 Q 170.29 170.79 171.00 170.46 Z"
     id="path112"
     style="opacity:1" />
  <path
     fill="rgb(220,106,81)"
     fill-opacity="1.000"
     d="M 94.26 44.88 Q 96.49 44.54 94.94 46.19 Q 85.28 56.47 71.66 60.67 A 0.39 0.37 -8.2 0 1 71.16 60.32 L 71.27 46.31 A 0.50 0.47 2.8 0 1 71.81 45.85 Q 82.72 46.65 94.26 44.88 Z"
     id="path114"
     style="opacity:1" />
  <path
     fill="rgb(255,255,255)"
     fill-opacity="1.000"
     d="M 93.71 79.31 L 94.01 82.86 A 0.58 0.58 86.8 0 1 93.44 83.50 L 62.23 84.00 A 0.43 0.43 -1.8 0 0 61.81 84.44 L 62.23 100.50 A 1.27 1.04 -74.5 0 0 62.61 101.36 Q 63.68 102.30 65.25 102.04 Q 65.28 103.08 64.00 103.00 Q 57.38 102.58 50.97 102.50 A 0.51 0.51 -88.4 0 1 50.46 101.96 Q 51.10 90.65 51.94 80.06 Q 52.01 79.14 50.75 79.04 L 93.18 78.82 A 0.53 0.53 87.7 0 1 93.71 79.31 Z"
     id="path118"
     style="opacity:1" />
  <path
     fill="rgb(217,215,217)"
     fill-opacity="1.000"
     d="M 50.75 79.04 Q 52.01 79.14 51.94 80.06 Q 51.10 90.65 50.46 101.96 A 0.51 0.51 -88.4 0 0 50.97 102.50 Q 57.38 102.58 64.00 103.00 Q 65.28 103.08 65.25 102.04 L 94.51 102.25 A 1.14 0.76 -11.3 0 1 95.36 102.60 Q 95.62 102.98 95.58 103.51 Q 95.55 104.06 95.65 104.47 Q 96.03 105.96 94.45 105.85 Q 93.10 105.76 93.05 105.76 Q 70.26 106.23 46.82 106.77 A 0.57 0.57 2.2 0 1 46.24 106.15 Q 47.29 93.64 48.21 81.27 Q 48.21 81.27 48.21 80.23 Q 48.21 78.29 50.75 79.04 Z"
     id="path120"
     style="opacity:1" />
  <path
     fill="rgb(211,241,250)"
     fill-opacity="1.000"
     d="M 94.12 85.93 L 95.02 98.79 A 0.67 0.65 -1.6 0 1 94.34 99.49 L 87.75 99.46 Q 87.54 94.72 85.37 90.52 Q 85.13 90.04 84.94 89.29 Q 84.55 87.72 83.59 88.62 A 0.88 0.77 60.5 0 0 83.41 89.48 Q 85.06 94.34 85.25 99.46 L 79.75 99.46 Q 77.20 92.96 76.50 86.04 L 93.57 85.45 A 0.53 0.51 -2.8 0 1 94.12 85.93 Z"
     id="path122"
     style="opacity:1" />
  <path
     fill="rgb(211,241,250)"
     fill-opacity="1.000"
     d="M 64.56 86.04 L 70.75 86.04 Q 70.75 91.78 72.36 97.28 A 1.81 0.87 -61.8 0 1 72.32 98.21 Q 72.15 98.87 72.50 99.46 L 68.75 99.46 Q 67.43 95.58 66.99 91.50 Q 66.69 88.62 64.04 88.75 L 63.99 86.57 A 0.57 0.51 -1.0 0 1 64.56 86.04 Z"
     id="path124"
     style="opacity:1" />
  <path
     fill="rgb(255,255,255)"
     fill-opacity="1.000"
     d="M 70.75 86.04 L 76.50 86.04 Q 77.20 92.96 79.75 99.46 L 72.50 99.46 Q 72.15 98.87 72.32 98.21 A 1.81 0.87 -61.8 0 0 72.36 97.28 Q 70.75 91.78 70.75 86.04 Z"
     id="path126"
     style="opacity:1" />
  <path
     fill="rgb(246,246,246)"
     fill-opacity="1.000"
     d="M 85.37 90.52 Q 87.54 94.72 87.75 99.46 L 85.25 99.46 Q 85.06 94.34 83.41 89.48 A 0.88 0.77 60.5 0 1 83.59 88.62 Q 84.55 87.72 84.94 89.29 Q 85.13 90.04 85.37 90.52 Z"
     id="path128"
     style="opacity:1" />
  <path
     fill="rgb(183,225,240)"
     fill-opacity="1.000"
     d="M 66.99 91.50 Q 67.43 95.58 68.75 99.46 L 65.20 99.58 A 0.56 0.55 -2.6 0 1 64.62 99.06 L 64.04 88.75 Q 66.69 88.62 66.99 91.50 Z"
     id="path130"
     style="opacity:1" />
  <path
     fill="rgb(255,255,255)"
     fill-opacity="1.000"
     d="M 162.67 108.56 L 161.71 137.19 A 0.58 0.49 -87.5 0 1 161.19 137.76 L 160.50 137.71 Q 160.43 136.09 159.12 136.10 Q 157.50 136.12 157.38 136.10 Q 148.87 134.67 140.25 135.25 Q 133.61 134.53 126.94 134.81 Q 99.78 133.25 92.50 133.50 Q 80.74 133.90 69.00 133.00 Q 55.66 133.05 42.21 132.94 A 0.81 0.81 -80.7 0 1 41.45 131.88 Q 44.95 120.92 47.50 109.04 Q 57.87 109.42 68.25 109.00 Q 69.79 108.94 162.19 108.07 A 0.47 0.47 -89.4 0 1 162.67 108.56 Z M 115.68 112.76 Q 112.19 112.05 109.00 112.25 Q 88.77 112.11 68.56 112.80 A 0.61 0.60 -86.0 0 0 67.98 113.31 Q 66.57 121.62 66.22 130.85 A 0.84 0.84 -87.6 0 0 67.03 131.73 Q 92.00 132.36 115.71 131.76 A 0.82 0.82 88.6 0 0 116.51 130.92 L 116.24 113.44 A 0.71 0.71 5.7 0 0 115.68 112.76 Z M 156.72 114.28 A 1.19 1.19 0 0 0 155.53 113.09 L 120.21 113.09 A 1.19 1.19 0 0 0 119.02 114.28 L 119.02 130.82 A 1.19 1.19 0 0 0 120.21 132.01 L 155.53 132.01 A 1.19 1.19 0 0 0 156.72 130.82 L 156.72 114.28 Z"
     id="path132"
     style="opacity:1" />
  <path
     fill="rgb(217,215,217)"
     fill-opacity="1.000"
     d="M 45.07 109.02 L 47.50 109.04 Q 44.95 120.92 41.45 131.88 A 0.81 0.81 -80.7 0 0 42.21 132.94 Q 55.66 133.05 69.00 133.00 Q 80.74 133.90 92.50 133.50 Q 99.78 133.25 126.94 134.81 Q 133.61 134.53 140.25 135.25 Q 148.87 134.67 157.38 136.10 Q 157.50 136.12 159.12 136.10 Q 160.43 136.09 160.50 137.71 L 30.57 136.94 A 0.30 0.30 13.7 0 1 30.30 136.50 L 44.34 109.50 A 0.89 0.78 -74.5 0 1 45.07 109.02 Z"
     id="path893"
     style="opacity:1" />
  <path
     fill="rgb(0,0,0)"
     fill-opacity="1.000"
     d="M 109.00 112.25 Q 112.19 112.05 115.68 112.76 A 0.71 0.71 5.7 0 1 116.24 113.44 L 116.51 130.92 A 0.82 0.82 -89.9 0 1 115.71 131.76 Q 92.00 132.36 67.03 131.73 A 0.84 0.84 -87.6 0 1 66.22 130.85 Q 66.57 121.62 67.98 113.31 A 0.61 0.60 -86.0 0 1 68.56 112.80 Q 88.77 112.11 109.00 112.25 Z M 83.00 114.71 Q 82.05 114.50 81.21 114.75 L 70.30 115.02 A 0.72 0.69 -81.8 0 0 69.65 115.53 Q 69.33 116.59 69.46 117.75 L 68.92 129.31 A 0.51 0.49 0.5 0 0 69.44 129.82 L 79.25 129.54 L 80.50 129.46 L 86.00 129.46 L 113.36 129.67 A 1.11 1.05 0.0 0 0 114.48 128.61 L 114.34 114.68 A 0.52 0.50 -1.1 0 0 113.81 114.19 L 83.00 114.71 Z"
     id="path136"
     style="opacity:1" />
  <path
     fill="rgb(0,0,0)"
     fill-opacity="1.000"
     d="M 156.72 130.82 A 1.19 1.19 0 0 1 155.53 132.01 L 120.21 132.01 A 1.19 1.19 0 0 1 119.02 130.82 L 119.02 114.28 A 1.19 1.19 0 0 1 120.21 113.09 L 155.53 113.09 A 1.19 1.19 0 0 1 156.72 114.28 L 156.72 130.82 Z M 121.04 117.75 L 121.05 129.19 A 0.74 0.69 -81.2 0 0 121.52 129.88 Q 122.47 130.20 123.50 129.96 L 137.00 129.50 L 140.50 129.46 L 143.25 129.46 L 153.70 128.96 A 0.54 0.54 -45.0 0 0 154.22 128.44 L 154.76 116.29 A 0.58 0.54 1.5 0 0 154.19 115.73 L 143.25 115.54 L 131.50 115.29 L 121.27 114.99 A 0.64 0.54 85.9 0 0 120.74 115.72 L 121.04 117.75 Z"
     id="path138"
     style="opacity:1" />
  <path
     fill="rgb(211,241,250)"
     fill-opacity="1.000"
     d="M 114.34 114.68 L 114.48 128.61 A 1.11 1.05 0.0 0 1 113.36 129.67 L 86.00 129.46 Q 86.67 128.96 85.95 127.99 A 1.40 1.31 -66.5 0 1 85.68 127.23 L 85.04 115.24 A 0.57 0.51 -0.4 0 0 84.50 114.76 L 83.00 114.71 L 113.81 114.19 A 0.52 0.50 -1.1 0 1 114.34 114.68 Z"
     id="path140"
     style="opacity:1" />
  <path
     fill="rgb(255,255,255)"
     fill-opacity="1.000"
     d="M 83.00 114.71 L 84.50 114.76 A 0.57 0.51 -0.4 0 1 85.04 115.24 L 85.68 127.23 A 1.40 1.31 -66.5 0 0 85.95 127.99 Q 86.67 128.96 86.00 129.46 L 80.50 129.46 L 81.21 114.75 Q 82.05 114.50 83.00 114.71 Z"
     id="path142"
     style="opacity:1" />
  <path
     fill="rgb(201,241,252)"
     fill-opacity="1.000"
     d="M 81.21 114.75 L 80.50 129.46 L 79.25 129.54 L 75.06 129.45 A 0.72 0.65 -6.3 0 1 74.39 128.97 L 71.96 119.80 A 0.91 0.79 88.4 0 0 71.37 119.16 Q 69.73 118.73 69.46 117.75 Q 69.33 116.59 69.65 115.53 A 0.72 0.69 -81.8 0 1 70.30 115.02 L 81.21 114.75 Z"
     id="path144"
     style="opacity:1" />
  <path
     fill="rgb(211,241,250)"
     fill-opacity="1.000"
     d="M 121.27 114.99 L 131.50 115.29 L 132.15 128.82 A 0.58 0.53 88.8 0 0 132.67 129.37 L 137.00 129.50 L 123.50 129.96 Q 124.85 125.41 123.50 120.00 Q 122.97 117.88 121.04 117.75 L 120.74 115.72 A 0.64 0.54 85.9 0 1 121.27 114.99 Z"
     id="path146"
     style="opacity:1" />
  <path
     fill="rgb(255,255,255)"
     fill-opacity="1.000"
     d="M 131.50 115.29 L 143.25 115.54 Q 141.67 115.84 142.21 116.83 Q 142.47 117.32 142.50 117.75 L 143.25 129.46 L 140.50 129.46 L 140.00 118.24 A 1.21 1.21 -3.3 0 0 138.71 117.09 Q 137.26 117.18 135.04 116.32 Q 134.37 116.06 134.51 116.78 L 137.00 129.50 L 132.67 129.37 A 0.58 0.53 88.8 0 1 132.15 128.82 L 131.50 115.29 Z"
     id="path148"
     style="opacity:1" />
  <path
     fill="rgb(211,241,250)"
     fill-opacity="1.000"
     d="M 143.25 115.54 L 154.19 115.73 A 0.58 0.54 1.5 0 1 154.76 116.29 L 154.22 128.44 A 0.54 0.54 -45.0 0 1 153.70 128.96 L 143.25 129.46 L 142.50 117.75 Q 142.47 117.32 142.21 116.83 Q 141.67 115.84 143.25 115.54 Z"
     id="path150"
     style="opacity:1" />
  <path
     fill="rgb(211,241,250)"
     fill-opacity="1.000"
     d="M 135.04 116.32 Q 137.26 117.18 138.71 117.09 A 1.21 1.21 -3.3 0 1 140.00 118.24 L 140.50 129.46 L 137.00 129.50 L 134.51 116.78 Q 134.37 116.06 135.04 116.32 Z"
     id="path152"
     style="opacity:1" />
  <path
     fill="rgb(183,225,240)"
     fill-opacity="1.000"
     d="M 69.46 117.75 Q 69.73 118.73 71.37 119.16 A 0.91 0.79 88.4 0 1 71.96 119.80 L 74.39 128.97 A 0.72 0.65 -6.3 0 0 75.06 129.45 L 79.25 129.54 L 69.44 129.82 A 0.51 0.49 0.5 0 1 68.92 129.31 L 69.46 117.75 Z"
     id="path154"
     style="opacity:1" />
  <path
     fill="rgb(183,225,240)"
     fill-opacity="1.000"
     d="M 121.04 117.75 Q 122.97 117.88 123.50 120.00 Q 124.85 125.41 123.50 129.96 Q 122.47 130.20 121.52 129.88 A 0.74 0.69 -81.2 0 1 121.05 129.19 L 121.04 117.75 Z"
     id="path156"
     style="opacity:1" />
  <path
     fill="rgb(82,82,82)"
     fill-opacity="1.000"
     d="M 9.00 138.29 L 24.03 162.20 A 3.21 3.02 -10.8 0 0 26.25 163.61 Q 30.47 164.22 35.50 164.25 Q 39.21 164.27 54.50 165.00 Q 68.64 164.88 82.75 165.75 Q 114.89 166.53 147.00 167.93 Q 158.53 168.43 170.00 169.73 Q 170.71 169.81 171.00 170.46 Q 170.29 170.79 169.50 170.80 Q 95.54 171.22 21.57 170.94 A 0.94 0.91 -16.0 0 1 20.79 170.52 Q 16.69 164.15 13.34 157.36 Q 8.80 148.16 3.81 139.18 Q 3.26 138.20 4.30 138.21 L 9.00 138.29 Z"
     id="path158"
     style="opacity:1" />
  <path
     fill="rgb(146,146,146)"
     fill-opacity="1.000"
     d="M 9.00 138.29 Q 36.62 139.01 64.25 139.06 Q 92.25 139.12 120.25 139.48 Q 169.59 140.12 218.26 140.06 Q 219.48 140.06 218.47 140.74 Q 197.36 155.07 176.69 169.44 Q 174.05 171.27 171.00 170.46 Q 170.71 169.81 170.00 169.73 Q 158.53 168.43 147.00 167.93 Q 114.89 166.53 82.75 165.75 Q 68.64 164.88 54.50 165.00 Q 39.21 164.27 35.50 164.25 Q 30.47 164.22 26.25 163.61 A 3.21 3.02 -10.8 0 1 24.03 162.20 L 9.00 138.29 Z M 88.28 154.17 A 8.74 8.74 0 0 0 79.54 145.43 A 8.74 8.74 0 0 0 70.80 154.17 A 8.74 8.74 0 0 0 79.54 162.91 A 8.74 8.74 0 0 0 88.28 154.17 Z M 40.13 154.36 A 8.77 8.77 0 0 0 31.36 145.59 A 8.77 8.77 0 0 0 22.59 154.36 A 8.77 8.77 0 0 0 31.36 163.13 A 8.77 8.77 0 0 0 40.13 154.36 Z M 64.43 154.60 A 8.76 8.76 0 0 0 55.67 145.84 A 8.76 8.76 0 0 0 46.91 154.60 A 8.76 8.76 0 0 0 55.67 163.36 A 8.76 8.76 0 0 0 64.43 154.60 Z M 112.63 154.44 A 8.76 8.76 0 0 0 103.87 145.68 A 8.76 8.76 0 0 0 95.11 154.44 A 8.76 8.76 0 0 0 103.87 163.20 A 8.76 8.76 0 0 0 112.63 154.44 Z M 137.39 154.85 A 8.78 8.78 0 0 0 128.61 146.07 A 8.78 8.78 0 0 0 119.83 154.85 A 8.78 8.78 0 0 0 128.61 163.63 A 8.78 8.78 0 0 0 137.39 154.85 Z M 185.57 154.64 A 8.77 8.77 0 0 0 176.80 145.87 A 8.77 8.77 0 0 0 168.03 154.64 A 8.77 8.77 0 0 0 176.80 163.41 A 8.77 8.77 0 0 0 185.57 154.64 Z M 161.68 155.13 A 8.78 8.78 0 0 0 152.90 146.35 A 8.78 8.78 0 0 0 144.12 155.13 A 8.78 8.78 0 0 0 152.90 163.91 A 8.78 8.78 0 0 0 161.68 155.13 Z"
     id="path160"
     style="opacity:1" />
  <path
     fill="rgb(0,0,0)"
     fill-opacity="1.000"
     d="M 88.28 154.17 A 8.74 8.74 0 0 1 79.54 162.91 A 8.74 8.74 0 0 1 70.80 154.17 A 8.74 8.74 0 0 1 79.54 145.43 A 8.74 8.74 0 0 1 88.28 154.17 Z M 86.30 153.87 A 6.72 6.72 0 0 0 79.58 147.15 A 6.72 6.72 0 0 0 72.86 153.87 A 6.72 6.72 0 0 0 79.58 160.59 A 6.72 6.72 0 0 0 86.30 153.87 Z"
     id="path162"
     style="opacity:1" />
  <path
     fill="rgb(0,0,0)"
     fill-opacity="1.000"
     d="M 40.13 154.36 A 8.77 8.77 0 0 1 31.36 163.13 A 8.77 8.77 0 0 1 22.59 154.36 A 8.77 8.77 0 0 1 31.36 145.59 A 8.77 8.77 0 0 1 40.13 154.36 Z M 27.21 149.00 Q 22.22 153.52 26.25 158.50 Q 29.81 162.90 35.25 159.54 Q 39.21 156.00 37.67 151.90 Q 36.51 148.83 33.72 147.64 Q 30.52 146.27 27.21 149.00 Z"
     id="path164"
     style="opacity:1" />
  <path
     fill="rgb(0,0,0)"
     fill-opacity="1.000"
     d="M 64.43 154.60 A 8.76 8.76 0 0 1 55.67 163.36 A 8.76 8.76 0 0 1 46.91 154.60 A 8.76 8.76 0 0 1 55.67 145.84 A 8.76 8.76 0 0 1 64.43 154.60 Z M 49.21 153.25 Q 48.31 157.76 51.94 160.06 Q 55.04 162.03 58.50 160.29 Q 64.88 156.68 61.25 150.50 Q 59.97 148.32 57.47 147.72 Q 55.23 147.18 53.10 148.10 Q 49.96 149.44 49.21 153.25 Z"
     id="path166"
     style="opacity:1" />
  <path
     fill="rgb(0,0,0)"
     fill-opacity="1.000"
     d="M 112.63 154.44 A 8.76 8.76 0 0 1 103.87 163.20 A 8.76 8.76 0 0 1 95.11 154.44 A 8.76 8.76 0 0 1 103.87 145.68 A 8.76 8.76 0 0 1 112.63 154.44 Z M 98.71 150.00 Q 96.61 152.32 97.25 155.25 Q 98.73 161.99 105.79 160.50 Q 110.87 158.80 110.50 153.50 Q 110.27 150.23 107.32 148.52 Q 102.32 145.62 98.71 150.00 Z"
     id="path168"
     style="opacity:1" />
  <path
     fill="rgb(0,0,0)"
     fill-opacity="1.000"
     d="M 137.39 154.85 A 8.78 8.78 0 0 1 128.61 163.63 A 8.78 8.78 0 0 1 119.83 154.85 A 8.78 8.78 0 0 1 128.61 146.07 A 8.78 8.78 0 0 1 137.39 154.85 Z M 122.04 154.00 Q 121.98 161.55 129.50 161.21 Q 135.11 159.79 135.21 155.17 Q 135.29 151.51 132.59 149.13 Q 129.36 146.30 124.81 149.06 Q 122.38 150.54 122.04 154.00 Z"
     id="path170"
     style="opacity:1" />
  <path
     fill="rgb(0,0,0)"
     fill-opacity="1.000"
     d="M 185.57 154.64 A 8.77 8.77 0 0 1 176.80 163.41 A 8.77 8.77 0 0 1 168.03 154.64 A 8.77 8.77 0 0 1 176.80 145.87 A 8.77 8.77 0 0 1 185.57 154.64 Z M 183.55 154.37 A 6.73 6.73 0 0 0 176.82 147.64 A 6.73 6.73 0 0 0 170.09 154.37 A 6.73 6.73 0 0 0 176.82 161.10 A 6.73 6.73 0 0 0 183.55 154.37 Z"
     id="path172"
     style="opacity:1" />
  <path
     fill="rgb(0,0,0)"
     fill-opacity="1.000"
     d="M 161.68 155.13 A 8.78 8.78 0 0 1 152.90 163.91 A 8.78 8.78 0 0 1 144.12 155.13 A 8.78 8.78 0 0 1 152.90 146.35 A 8.78 8.78 0 0 1 161.68 155.13 Z M 149.75 149.04 Q 144.61 152.15 146.81 157.69 Q 148.27 161.34 152.46 161.50 Q 156.07 161.52 158.07 159.19 Q 159.93 157.03 159.57 153.94 Q 159.02 149.28 153.56 148.18 Q 151.48 147.76 149.75 149.04 Z"
     id="path174"
     style="opacity:1" />
  <circle
     fill="rgb(201,241,252)"
     fill-opacity="1.000"
     cx="79.58"
     cy="153.87"
     r="6.72"
     id="circle176"
     style="opacity:1" />
  <path
     fill="rgb(201,241,252)"
     fill-opacity="1.000"
     d="M 37.67 151.90 Q 39.21 156.00 35.25 159.54 Q 34.19 158.95 33.47 157.98 A 1.12 1.04 73.0 0 0 32.69 157.53 Q 29.86 157.29 27.85 155.36 A 1.41 0.83 -79.7 0 1 27.53 154.50 L 27.21 149.00 Q 30.52 146.27 33.72 147.64 Q 36.51 148.83 37.67 151.90 Z"
     id="path178"
     style="opacity:1" />
  <path
     fill="rgb(201,241,252)"
     fill-opacity="1.000"
     d="M 107.32 148.52 Q 110.27 150.23 110.50 153.50 Q 110.87 158.80 105.79 160.50 L 98.71 150.00 Q 102.32 145.62 107.32 148.52 Z"
     id="path180"
     style="opacity:1" />
  <path
     fill="rgb(201,241,252)"
     fill-opacity="1.000"
     d="M 57.47 147.72 Q 59.97 148.32 61.25 150.50 Q 64.88 156.68 58.50 160.29 Q 54.50 158.45 51.03 154.59 A 1.22 1.17 -15.6 0 0 50.36 154.23 Q 49.53 154.08 49.21 153.25 Q 49.96 149.44 53.10 148.10 Q 55.23 147.18 57.47 147.72 Z"
     id="path182"
     style="opacity:1" />
  <circle
     fill="rgb(201,241,252)"
     fill-opacity="1.000"
     cx="176.82"
     cy="154.37"
     r="6.73"
     id="circle184"
     style="opacity:1" />
  <path
     fill="rgb(201,241,252)"
     fill-opacity="1.000"
     d="M 135.21 155.17 Q 135.11 159.79 129.50 161.21 Q 127.14 159.41 125.69 156.06 Q 124.72 153.84 122.04 154.00 Q 122.38 150.54 124.81 149.06 Q 129.36 146.30 132.59 149.13 Q 135.29 151.51 135.21 155.17 Z"
     id="path186"
     style="opacity:1" />
  <path
     fill="rgb(201,241,252)"
     fill-opacity="1.000"
     d="M 153.56 148.18 Q 159.02 149.28 159.57 153.94 Q 159.93 157.03 158.07 159.19 Q 156.07 161.52 152.46 161.50 Q 152.14 160.68 151.79 159.88 Q 151.52 159.24 150.79 158.45 Q 148.80 156.33 149.71 153.24 Q 150.33 151.15 149.75 149.04 Q 151.48 147.76 153.56 148.18 Z"
     id="path188"
     style="opacity:1" />
  <path
     fill="rgb(183,225,240)"
     fill-opacity="1.000"
     d="M 27.21 149.00 L 27.53 154.50 A 1.41 0.83 -79.7 0 0 27.85 155.36 Q 29.86 157.29 32.69 157.53 A 1.12 1.04 73.0 0 1 33.47 157.98 Q 34.19 158.95 35.25 159.54 Q 29.81 162.90 26.25 158.50 Q 22.22 153.52 27.21 149.00 Z"
     id="path190"
     style="opacity:1" />
  <path
     fill="rgb(183,225,240)"
     fill-opacity="1.000"
     d="M 149.75 149.04 Q 150.33 151.15 149.71 153.24 Q 148.80 156.33 150.79 158.45 Q 151.52 159.24 151.79 159.88 Q 152.14 160.68 152.46 161.50 Q 148.27 161.34 146.81 157.69 Q 144.61 152.15 149.75 149.04 Z"
     id="path192"
     style="opacity:1" />
  <path
     fill="rgb(183,225,240)"
     fill-opacity="1.000"
     d="M 98.71 150.00 L 105.79 160.50 Q 98.73 161.99 97.25 155.25 Q 96.61 152.32 98.71 150.00 Z"
     id="path194"
     style="opacity:1" />
  <path
     fill="rgb(183,225,240)"
     fill-opacity="1.000"
     d="M 49.21 153.25 Q 49.53 154.08 50.36 154.23 A 1.22 1.17 -15.6 0 1 51.03 154.59 Q 54.50 158.45 58.50 160.29 Q 55.04 162.03 51.94 160.06 Q 48.31 157.76 49.21 153.25 Z"
     id="path196"
     style="opacity:1" />
  <path
     fill="rgb(183,225,240)"
     fill-opacity="1.000"
     d="M 122.04 154.00 Q 124.72 153.84 125.69 156.06 Q 127.14 159.41 129.50 161.21 Q 121.98 161.55 122.04 154.00 Z"
     id="path198"
     style="opacity:1" />
</svg>
